# xmcd
# 
# Track frame offsets:
#     150
#     29552
#     49329
#     73039
#     90007
#     106570
#     123869
#     150254
#     173239
#     196039
# 
# Disc length: 2925
# 
# Revision: 3
# Processed by: cddbd v1.5.2PL0 Copyright (c) Steve Scherf et al.
# Submitted via: fre:ac v1.0.27
# 
DISCID=6d0b6b0a
DTITLE=Nazareth - It's Naz ('Snaz) [live] [CD 1) [remastered 2018]
DYEAR=1981
DGENRE=Hard Rock
TTITLE0=Telegram [Parts 1, 2 and 3] [live]
TTITLE1=Razamanaz [live]
TTITLE2=I Want To Do Everything For You [live]
TTITLE3=This Flight Tonight [live]
TTITLE4=Beggar's Day [live]
TTITLE5=Every Young Man's Dream [live]
TTITLE6=Heart's Grown Cold [live]
TTITLE7=Java Blues [live]
TTITLE8=Cocaine [live]
TTITLE9=Big Boy [live]
EXTD=
EXTT0=
EXTT1=
EXTT2=
EXTT3=
EXTT4=
EXTT5=
EXTT6=
EXTT7=
EXTT8=
EXTT9=
PLAYORDER=
